HIERARCHY
ROOT Hips
{
 OFFSET 0.000000 0.000000 0.000000
 CHANNELS 6 Xposition Yposition Zposition Yrotation Xrotation Zrotation
 JOINT Chest
 {
  OFFSET 0.000000 9.585900 0.002600
  CHANNELS 3 Yrotation Xrotation Zrotation
  JOINT Chest2
  {
   OFFSET 0.000000 9.601200 -0.005300
   CHANNELS 3 Yrotation Xrotation Zrotation
   JOINT Chest3
   {
    OFFSET 0.000000 9.561800 0.000000
    CHANNELS 3 Yrotation Xrotation Zrotation
    JOINT Chest4
    {
     OFFSET 0.000000 9.552100 0.000000
     CHANNELS 3 Yrotation Xrotation Zrotation
     JOINT Neck
     {
      OFFSET 0.000000 14.453000 0.000000
      CHANNELS 3 Yrotation Xrotation Zrotation
      JOINT Head
      {
       OFFSET 0.000000 8.936500 -0.011300
       CHANNELS 3 Yrotation Xrotation Zrotation
       End Site
       {
        OFFSET 0.000000 17.073600 -0.006000
       }
      }
     }
     JOINT RightCollar
     {
      OFFSET -2.921100 9.558500 0.000000
      CHANNELS 3 Yrotation Xrotation Zrotation
      JOINT RightShoulder
      {
       OFFSET -13.519700 0.000000 0.000000
       CHANNELS 3 Yrotation Xrotation Zrotation
       JOINT RightElbow
       {
        OFFSET 0.000000 -29.696600 0.000000
        CHANNELS 3 Yrotation Xrotation Zrotation
        JOINT RightWrist
        {
         OFFSET 0.000000 -24.004700 0.000000
         CHANNELS 3 Yrotation Xrotation Zrotation
         End Site
         {
          OFFSET 0.000000 -17.728500 0.000000
         }
        }
       }
      }
     }
     JOINT LeftCollar
     {
      OFFSET 2.921100 9.558500 0.000000
      CHANNELS 3 Yrotation Xrotation Zrotation
      JOINT LeftShoulder
      {
       OFFSET 13.519700 0.000000 0.000000
       CHANNELS 3 Yrotation Xrotation Zrotation
       JOINT LeftElbow
       {
        OFFSET 0.000000 -29.696600 0.000000
        CHANNELS 3 Yrotation Xrotation Zrotation
        JOINT LeftWrist
        {
         OFFSET 0.000000 -24.004700 0.000000
         CHANNELS 3 Yrotation Xrotation Zrotation
         End Site
         {
          OFFSET 0.000000 -17.728500 0.000000
         }
        }
       }
      }
     }
    }
   }
  }
 }
 JOINT RightHip
 {
  OFFSET -7.771700 -0.012900 -0.001300
  CHANNELS 3 Yrotation Xrotation Zrotation
  JOINT RightKnee
  {
   OFFSET 0.000000 -40.869800 0.001200
   CHANNELS 3 Yrotation Xrotation Zrotation
   JOINT RightAnkle
   {
    OFFSET 0.000000 -39.717900 0.002100
    CHANNELS 3 Yrotation Xrotation Zrotation
    JOINT RightToe
    {
     OFFSET 0.000000 -4.965400 11.033500
     CHANNELS 3 Yrotation Xrotation Zrotation
     End Site
     {
      OFFSET 0.000000 -1.423100 5.872300
     }
    }
   }
  }
 }
 JOINT LeftHip
 {
  OFFSET 7.771700 -0.012900 -0.001300
  CHANNELS 3 Yrotation Xrotation Zrotation
  JOINT LeftKnee
  {
   OFFSET 0.000000 -40.869800 0.001200
   CHANNELS 3 Yrotation Xrotation Zrotation
   JOINT LeftAnkle
   {
    OFFSET 0.000000 -39.717900 0.002100
    CHANNELS 3 Yrotation Xrotation Zrotation
    JOINT LeftToe
    {
     OFFSET 0.000000 -4.965400 11.033500
     CHANNELS 3 Yrotation Xrotation Zrotation
     End Site
     {
      OFFSET 0.000000 -1.423100 5.872300
     }
    }
   }
  }
 }
}
MOTION
Frames: 13
Frame Time: 0.008333
-242.475130 57.168619 145.430039 176.151827 -41.450312 -0.523182 -0.687411 20.595507 2.376109 -0.175098 2.643989 0.329054 -0.253835 4.323175 0.515720 -0.806349 17.604240 2.028649 1.061448 25.760556 -2.267674 2.349065 12.080969 -4.166284 7.408181 6.513712 -3.599999 12.346852 -13.919564 -12.457559 -148.525183 -81.736682 -179.797690 10.729472 -14.261696 -46.729433 -5.805208 -3.169923 -4.031889 -9.390839 -27.809486 -5.298999 91.991501 -48.979870 -139.563684 0.903966 -8.007467 10.274035 9.566448 -34.277219 -5.048754 -9.043722 64.572131 -9.459708 2.848595 27.926570 2.873960 -0.984793 -16.536197 6.546859 -9.818065 -32.818886 2.079607 30.201294 67.500662 30.755039 -12.660507 8.031207 -5.899361 0.036774 0.159115 0.025444
-242.474402 57.172364 145.428435 176.147574 -41.468872 -0.510709 -0.767409 20.623342 2.396296 -0.168110 2.648803 0.321935 -0.267522 4.333200 0.523124 -0.858454 17.618861 2.049533 1.080607 25.721703 -2.364653 2.350891 11.983649 -4.238168 7.494399 6.508255 -3.718956 12.423782 -13.897496 -12.459386 -148.690081 -81.760410 -179.698595 10.698465 -14.228743 -46.692422 -5.920852 -3.273929 -4.107265 -9.377303 -27.206697 -5.512447 92.156582 -48.978589 -139.726411 1.013624 -8.073885 10.328214 9.577739 -34.258466 -5.047984 -9.051010 64.573565 -9.476029 2.847001 27.931931 2.893266 -0.974309 -16.543532 6.534321 -9.790863 -32.796058 2.062196 30.212532 67.488878 30.765233 -12.670331 8.038354 -5.885426 0.031644 0.152711 0.018739
-242.475275 57.176083 145.426270 176.142828 -41.490772 -0.487875 -0.834930 20.651266 2.396332 -0.176685 2.656975 0.326280 -0.281346 4.345774 0.529859 -0.911087 17.638147 2.067107 1.086343 25.664793 -2.420208 2.367173 11.948124 -4.346938 7.579817 6.491545 -3.831077 12.504770 -13.892883 -12.468301 -148.693870 -81.815887 -179.747449 10.693183 -14.218918 -46.655493 -6.052551 -3.385290 -4.181904 -9.402096 -26.637737 -5.678563 92.280833 -48.963768 -139.818560 1.137390 -8.134929 10.406174 9.593358 -34.234375 -5.060624 -9.064381 64.573948 -9.502502 2.866053 27.935447 2.928287 -0.980490 -16.549247 6.518508 -9.734998 -32.767145 2.014848 30.203767 67.470832 30.775147 -12.667535 8.039965 -5.874003 0.018103 0.152913 0.014790
-242.475882 57.178818 145.424416 176.137560 -41.510121 -0.466837 -0.908537 20.677229 2.390034 -0.185822 2.666664 0.330256 -0.296117 4.360698 0.535888 -0.967344 17.661481 2.080760 1.107915 25.601935 -2.480678 2.389234 11.815218 -4.480028 7.653586 6.461245 -3.927208 12.610191 -13.899940 -12.500499 -148.705546 -81.882985 -179.770039 10.688290 -14.225229 -46.627211 -6.187788 -3.506797 -4.259344 -9.452432 -26.104167 -5.798991 92.356295 -48.935060 -139.837522 1.272235 -8.191690 10.502834 9.600012 -34.218237 -5.056757 -9.070905 64.579894 -9.533083 2.857184 27.944138 2.952001 -0.969533 -16.560335 6.504503 -9.659529 -32.736520 1.956580 30.170391 67.447165 30.779169 -12.665248 8.033093 -5.861394 0.008153 0.162395 0.007602
-242.475805 57.180615 145.422476 176.136920 -41.530259 -0.454146 -0.993459 20.702413 2.380617 -0.151098 2.671855 0.316766 -0.356706 4.381206 0.559726 -1.032631 17.686049 2.088340 1.087011 25.531696 -2.504888 2.468344 11.686169 -4.678716 7.684425 6.411523 -4.006871 12.773262 -13.901112 -12.561097 -148.722295 -81.917756 -179.788260 10.674412 -14.222557 -46.587987 -6.313890 -3.629253 -4.340033 -9.517123 -25.603983 -5.884216 92.383764 -48.894058 -139.787914 1.413350 -8.251646 10.605555 9.589471 -34.203479 -5.033594 -9.003756 64.591277 -9.513855 2.817890 27.952973 2.986802 -0.949524 -16.573449 6.484123 -9.592334 -32.706828 1.901543 30.133540 67.428233 30.785014 -12.648438 8.022386 -5.863531 -0.010999 0.174498 0.011552
-242.474148 57.182573 145.419006 176.137091 -41.563380 -0.452743 -1.083652 20.734391 2.375731 -0.110951 2.683821 0.305363 -0.426636 4.392432 0.579475 -1.108365 17.707877 2.088942 1.101493 25.470018 -2.558662 2.554167 11.584111 -4.826973 7.746361 6.364518 -4.096597 12.902265 -13.895038 -12.604512 -148.784488 -81.938594 -179.739390 10.655220 -14.232367 -46.564524 -6.430292 -3.739544 -4.420463 -9.583145 -25.125180 -5.948052 92.378601 -48.838528 -139.695925 1.554011 -8.313592 10.708946 9.559812 -34.177687 -4.990169 -9.011560 64.592428 -9.565183 2.817688 27.978213 3.045193 -0.931908 -16.598946 6.438610 -9.529610 -32.666658 1.852503 30.109784 67.412597 30.806744 -12.634067 8.018777 -5.854187 -0.030913 0.178640 0.005575
-242.474333 57.182855 145.415712 176.142166 -41.594254 -0.446074 -1.188034 20.754564 2.355872 -0.196104 2.694097 0.330863 -0.377478 4.399487 0.554804 -1.191928 17.722771 2.085769 1.141668 25.416766 -2.624630 2.642982 11.489989 -4.955522 7.831875 6.335739 -4.183688 13.001422 -13.871457 -12.630945 -148.870278 -81.940954 -179.656234 10.639335 -14.247508 -46.542242 -6.541074 -3.827062 -4.498365 -9.633308 -24.657073 -6.005156 92.359211 -48.769711 -139.595610 1.693827 -8.372573 10.812595 9.535421 -34.150477 -4.949635 -8.960771 64.598073 -9.569702 2.768320 27.983046 3.058531 -0.912117 -16.604792 6.436752 -9.467445 -32.636146 1.798479 30.089350 67.404871 30.819571 -12.612774 8.022773 -5.829690 -0.055908 0.177201 -0.004107
-242.476533 57.182031 145.412027 176.150494 -41.627908 -0.431752 -1.309260 20.765558 2.319477 -0.235124 2.695627 0.339275 -0.376265 4.405522 0.549132 -1.284862 17.726772 2.082333 1.188457 25.376434 -2.694685 2.744093 11.420604 -5.092585 7.929491 6.333419 -4.270481 13.108060 -13.860115 -12.688331 -148.597421 -81.945028 -179.933124 10.638999 -14.266317 -46.528501 -6.640109 -3.878106 -4.577894 -9.654929 -24.202179 -6.069593 92.341390 -48.700547 -139.511900 1.839072 -8.428403 10.913013 9.527865 -34.123716 -4.932529 -8.913623 64.612061 -9.566575 2.727467 27.997431 3.097065 -0.886866 -16.623679 6.411149 -9.405527 -32.609029 1.746152 30.067290 67.409901 30.798608 -12.572210 8.031531 -5.767306 -0.103938 0.168664 -0.028821
-242.476117 57.178767 145.410189 176.162628 -41.649855 -0.438141 -1.441610 20.753015 2.296335 -0.251134 2.694363 0.340752 -0.402353 4.403390 0.551140 -1.391648 17.718436 2.077871 1.243555 25.354399 -2.772465 2.861163 11.386048 -5.244922 8.050038 6.364705 -4.361277 13.190054 -13.856634 -12.743072 -148.411943 -81.946732 179.911311 10.628909 -14.277661 -46.538451 -6.716641 -3.885709 -4.665131 -9.644821 -23.768682 -6.145870 92.334171 -48.637456 -139.456883 1.989173 -8.476790 11.006170 9.519044 -34.113369 -4.907151 -8.895954 64.626143 -9.578021 2.708654 28.010901 3.138007 -0.865747 -16.641319 6.385117 -9.366881 -32.594561 1.728209 30.033869 67.418944 30.777405 -12.562892 8.041054 -5.738191 -0.122569 0.160158 -0.037137
-242.475224 57.174032 145.409436 176.184478 -41.665599 -0.455341 -1.598920 20.720841 2.270926 -0.269266 2.689173 0.341810 -0.432065 4.395278 0.552447 -1.514661 17.698619 2.070197 1.308420 25.352596 -2.859124 2.996984 11.390187 -5.414748 8.203218 6.430583 -4.456523 13.248647 -13.848185 -12.783262 -148.612499 -81.939696 -179.875014 10.572118 -14.286108 -46.528028 -6.764237 -3.854571 -4.769549 -9.604910 -23.359743 -6.224977 92.333130 -48.576240 -139.421661 2.141550 -8.513416 11.086468 9.501279 -34.109782 -4.881326 -8.895532 64.640541 -9.602177 2.701252 28.018502 3.173666 -0.862628 -16.652884 6.368296 -9.344912 -32.588635 1.731728 30.009099 67.431583 30.755132 -12.582451 8.044240 -5.718011 -0.118719 0.155206 -0.039386
-242.473897 57.169324 145.408665 176.197019 -41.684688 -0.469448 -1.769299 20.674626 2.243060 -0.289604 2.680038 0.342579 -0.465450 4.381099 0.553290 -1.654476 17.666773 2.060342 1.382150 25.372055 -2.955953 3.150043 11.435083 -5.604103 8.387970 6.535746 -4.559845 13.291283 -13.838859 -12.807061 -148.569527 -81.946999 -179.884679 10.556414 -14.297556 -46.529458 -6.784276 -3.786609 -4.904194 -9.535709 -22.973626 -6.294619 92.328802 -48.514868 -139.391613 2.306524 -8.544809 11.154224 9.470075 -34.107427 -4.834588 -8.922032 64.653658 -9.668230 2.696052 28.028912 3.197877 -0.852989 -16.665736 6.359642 -9.337424 -32.575137 1.741897 30.052097 67.432334 30.783867 -12.602184 8.040468 -5.695239 -0.123806 0.154639 -0.045325
-242.471805 57.165587 145.407409 176.205302 -41.711688 -0.485738 -1.946076 20.618840 2.217560 -0.311084 2.666728 0.343365 -0.500696 4.360238 0.554190 -1.803952 17.621983 2.051546 1.458692 25.409922 -3.059952 3.308815 11.514938 -5.806356 8.584850 6.681887 -4.666746 13.321644 -13.828147 -12.813878 -148.562794 -81.959829 -179.855781 10.537218 -14.306636 -46.527855 -6.794784 -3.677799 -5.061651 -9.438683 -22.609719 -6.354053 92.315794 -48.451925 -139.368259 2.499211 -8.587391 11.231800 9.446898 -34.090254 -4.797760 -8.931788 64.659054 -9.699978 2.698790 28.034945 3.225150 -0.851436 -16.672110 6.345440 -9.328626 -32.552378 1.759340 30.120935 67.429528 30.837971 -12.637287 8.033743 -5.677546 -0.124953 0.155064 -0.047810
-242.463315 57.162360 145.407080 176.220022 -41.739347 -0.546695 -2.107967 20.550199 2.234249 -0.331506 2.649950 0.344238 -0.534256 4.333895 0.555329 -1.948358 17.566965 2.045913 1.528625 25.460854 -3.163035 3.454803 11.618969 -6.005002 8.767238 6.859139 -4.764542 13.271890 -13.868286 -12.768445 -148.511073 -82.018736 -179.795147 10.506506 -14.315632 -46.489318 -6.824284 -3.529463 -5.212581 -9.324236 -22.269338 -6.410600 92.294180 -48.381415 -139.354958 2.726490 -8.659373 11.350784 9.395370 -34.077789 -4.712563 -8.966887 64.659487 -9.751153 2.716580 28.049506 3.255087 -0.857091 -16.684964 6.330795 -9.289928 -32.515147 1.851112 30.015212 67.449244 30.749492 -12.727129 8.006653 -5.708764 -0.069292 0.170328 -0.003088
